<?xml version="1.0" encoding="utf-8"?>
<!-- Generator: Adobe Illustrator 23.0.1, SVG Export Plug-In . SVG Version: 6.00 Build 0)  -->
<svg version="1.1" id="Layer_1" xmlns="http://www.w3.org/2000/svg" xmlns:xlink="http://www.w3.org/1999/xlink" x="0px" y="0px"
	 viewBox="0 0 202.6 70.3" style="enable-background:new 0 0 202.6 70.3;" xml:space="preserve">
<style type="text/css">
	.st0{fill:#FFFFFF;}
	.st1{fill:none;stroke:#FFFFFF;stroke-width:1.5;stroke-miterlimit:10;}
	.st2{font-family:'ArnoPro-Caption';}
	.st3{font-size:52px;}
	.st4{fill:none;stroke:#FFFFFF;stroke-width:4;stroke-linejoin:round;stroke-miterlimit:10;}
	.st5{fill:none;stroke:#FFFFFF;stroke-width:2;stroke-miterlimit:10;}
	.st6{fill:none;stroke:#5FABA2;stroke-width:2;stroke-linejoin:round;stroke-miterlimit:10;}
	.st7{fill:#5FABA2;}
	.st8{fill:none;}
	.st9{fill:#D4447E;}
</style>
<g>
	<polygon class="st0" points="23,3.3 32.6,5.4 52.4,4.4 43,2.3 	"/>
	<polyline class="st0" points="67.8,51.9 53.5,66.5 33.3,67.8 	"/>
	<polyline class="st0" points="67.8,51.9 72.7,34.4 67.5,20.5 62.7,38.1 67.5,20.5 52.4,4.4 23,3.3 7.9,18.3 3.2,35.6 8.3,49.8 
		23.3,65.5 33.3,67.8 	"/>
</g>
<text transform="matrix(1 0 0 1 76.1542 52.9483)" class="st1 st2 st3">Fermi</text>
<g>
	<g>
		<polygon class="st4" points="23,3.3 32.6,5.4 52.4,4.4 43,2.3 		"/>
		<polygon class="st4" points="32.6,5.4 28,22.7 13.1,37.7 3.2,35.6 7.9,18.3 23,3.3 		"/>
		<polygon class="st4" points="3.2,35.6 8.3,49.8 23.3,65.5 33.3,67.8 28.3,54.1 13.1,37.7 		"/>
		<polyline class="st4" points="28,22.7 42.9,38.8 28.3,54.1 		"/>
		<polyline class="st4" points="33.3,67.8 53.5,66.5 67.8,51.9 62.7,38.1 42.9,38.8 		"/>
		<polyline class="st4" points="67.8,51.9 72.7,34.4 67.5,20.5 62.7,38.1 		"/>
		<line class="st4" x1="67.5" y1="20.5" x2="52.4" y2="4.4"/>
	</g>
</g>
<text transform="matrix(1 0 0 1 42.8967 52.6067)" class="st5 st2 st3">I</text>
<g>
	<polygon class="st6" points="23,3.3 32.6,5.4 52.4,4.4 43,2.3 	"/>
	<polygon class="st6" points="32.6,5.4 28,22.7 13.1,37.7 3.2,35.6 7.9,18.3 23,3.3 	"/>
	<polygon class="st6" points="3.2,35.6 8.3,49.8 23.3,65.5 33.3,67.8 28.3,54.1 13.1,37.7 	"/>
	<polyline class="st6" points="28,22.7 42.9,38.8 28.3,54.1 	"/>
	<polyline class="st6" points="33.3,67.8 53.5,66.5 67.8,51.9 62.7,38.1 42.9,38.8 	"/>
	<polyline class="st6" points="67.8,51.9 72.7,34.4 67.5,20.5 62.7,38.1 	"/>
	<line class="st6" x1="67.5" y1="20.5" x2="52.4" y2="4.4"/>
</g>
<text transform="matrix(1 0 0 1 42.8967 52.6067)" class="st7 st2 st3">I</text>
<text transform="matrix(1 0 0 1 42.8967 52.6067)" class="st8 st2 st3">I</text>
<text transform="matrix(1 0 0 1 76.1542 52.9483)" class="st9 st2 st3">Fermi</text>
</svg>
