<?xml version="1.0" encoding="utf-8"?>
<!-- Generator: Adobe Illustrator 23.0.1, SVG Export Plug-In . SVG Version: 6.00 Build 0)  -->
<svg version="1.1" id="Layer_1" xmlns="http://www.w3.org/2000/svg" xmlns:xlink="http://www.w3.org/1999/xlink" x="0px" y="0px"
	 viewBox="0 0 70 66" style="enable-background:new 0 0 70 66;" xml:space="preserve">
<style type="text/css">
	.st0{fill:#68B7A2;}
	.st1{fill:#4B8E86;}
	.st2{fill:#60ACA3;}
	.st3{fill:#54A09C;}
	.st4{fill:#3C6E64;}
	.st5{fill:#5EA493;}
</style>
<g>
	<g>
		<polygon class="st0" points="22.1,6.4 18.9,5.7 12.2,6 15.5,6.7 		"/>
		<polygon class="st1" points="13.9,12.5 18.9,17.9 14,23.1 8.9,17.6 		"/>
		<polygon class="st2" points="13.9,12.5 18.9,17.9 25.5,17.7 27.2,11.8 22.1,6.4 15.5,6.7 		"/>
		<polygon class="st3" points="5.6,16.9 8.9,17.6 13.9,12.5 15.5,6.7 12.2,6 7.2,11.1 		"/>
		<polygon class="st4" points="15.7,27.7 14,23.1 8.9,17.6 5.6,16.9 7.3,21.6 12.3,26.9 		"/>
		<polygon class="st3" points="22.5,27.2 27.3,22.3 25.5,17.7 18.9,17.9 14,23.1 15.7,27.7 		"/>
		<polygon class="st5" points="27.2,11.8 28.9,16.5 27.3,22.3 25.5,17.7 		"/>
	</g>
</g>
<g>
	<g>
		<polygon class="st0" points="-43.9,5.7 -53.3,3.6 -73.3,4.6 -63.7,6.7 		"/>
		<polygon class="st1" points="-68.3,24 -53.4,40.1 -68,55.4 -83.2,39 		"/>
		<polygon class="st2" points="-68.3,24 -53.4,40.1 -33.6,39.4 -28.8,21.8 -43.9,5.7 -63.7,6.7 		"/>
		<polygon class="st3" points="-93.1,36.9 -83.2,39 -68.3,24 -63.7,6.7 -73.3,4.6 -88.4,19.6 		"/>
		<polygon class="st4" points="-63,69.1 -68,55.4 -83.2,39 -93.1,36.9 -88,51.1 -73,66.8 		"/>
		<polygon class="st3" points="-42.8,67.8 -28.5,53.2 -33.6,39.4 -53.4,40.1 -68,55.4 -63,69.1 		"/>
		<polygon class="st5" points="-28.8,21.8 -23.6,35.7 -28.5,53.2 -33.6,39.4 		"/>
	</g>
</g>
<g>
	<g>
		<polygon class="st0" points="29.3,38.1 25.4,37.3 17.3,37.7 21.2,38.5 		"/>
		<polygon class="st1" points="19.3,45.6 25.4,52.2 19.4,58.4 13.2,51.7 		"/>
		<polygon class="st2" points="19.3,45.6 25.4,52.2 33.5,51.9 35.4,44.7 29.3,38.1 21.2,38.5 		"/>
		<polygon class="st3" points="9.2,50.9 13.2,51.7 19.3,45.6 21.2,38.5 17.3,37.7 11.1,43.8 		"/>
		<polygon class="st4" points="21.5,64 19.4,58.4 13.2,51.7 9.2,50.9 11.3,56.7 17.4,63.1 		"/>
		<polygon class="st3" points="29.7,63.5 35.5,57.5 33.5,51.9 25.4,52.2 19.4,58.4 21.5,64 		"/>
		<polygon class="st5" points="35.4,44.7 37.6,50.4 35.5,57.5 33.5,51.9 		"/>
	</g>
</g>
<g>
	<g>
		<polygon class="st0" points="56.4,11.8 52.4,10.9 43.8,11.3 47.9,12.2 		"/>
		<polygon class="st1" points="46,19.7 52.4,26.6 46.1,33.1 39.6,26.1 		"/>
		<polygon class="st2" points="46,19.7 52.4,26.6 60.8,26.3 62.9,18.7 56.4,11.8 47.9,12.2 		"/>
		<polygon class="st3" points="35.3,25.2 39.6,26.1 46,19.7 47.9,12.2 43.8,11.3 37.3,17.8 		"/>
		<polygon class="st4" points="48.2,39 46.1,33.1 39.6,26.1 35.3,25.2 37.5,31.3 43.9,38 		"/>
		<polygon class="st3" points="56.9,38.5 63,32.2 60.8,26.3 52.4,26.6 46.1,33.1 48.2,39 		"/>
		<polygon class="st5" points="62.9,18.7 65.1,24.7 63,32.2 60.8,26.3 		"/>
	</g>
</g>
</svg>
