<?xml version="1.0" encoding="utf-8"?>
<!-- Generator: Adobe Illustrator 23.0.1, SVG Export Plug-In . SVG Version: 6.00 Build 0)  -->
<svg version="1.1" id="Layer_1" xmlns="http://www.w3.org/2000/svg" xmlns:xlink="http://www.w3.org/1999/xlink" x="0px" y="0px"
	 viewBox="0 0 199.9 70.3" style="enable-background:new 0 0 199.9 70.3;" xml:space="preserve">
<style type="text/css">
	.st0{fill:#FFFFFF;}
	.st1{fill:none;stroke:#FFFFFF;stroke-width:2;stroke-miterlimit:10;}
	.st2{font-family:'ArnoPro-Caption';}
	.st3{font-size:52px;}
	.st4{fill:none;stroke:#FFFFFF;stroke-width:4;stroke-linejoin:round;stroke-miterlimit:10;}
	.st5{fill:none;stroke:#232323;stroke-width:1.5;stroke-linejoin:round;stroke-miterlimit:10;}
	.st6{fill:none;stroke:#5FABA2;stroke-linejoin:round;stroke-miterlimit:10;}
	.st7{fill:#5FABA2;stroke:#232323;stroke-width:0.25;stroke-miterlimit:10;}
	.st8{fill:#D4447E;stroke:#232323;stroke-width:0.25;stroke-miterlimit:10;}
</style>
<g>
	<polygon class="st0" points="21.9,3.3 31.5,5.4 51.3,4.4 41.9,2.3 	"/>
	<polyline class="st0" points="66.7,51.9 52.4,66.5 32.2,67.8 	"/>
	<polyline class="st0" points="66.7,51.9 71.6,34.4 66.4,20.5 61.6,38.1 66.4,20.5 51.3,4.4 21.9,3.3 6.8,18.3 2.1,35.6 7.2,49.8 
		22.2,65.5 32.2,67.8 	"/>
</g>
<text transform="matrix(1 0 0 1 75.0606 52.9483)" class="st1 st2 st3">Fermi</text>
<g>
	<g>
		<polygon class="st4" points="21.9,3.3 31.5,5.4 51.3,4.4 41.9,2.3 		"/>
		<polygon class="st4" points="31.5,5.4 26.9,22.7 12,37.7 2.1,35.6 6.8,18.3 21.9,3.3 		"/>
		<polygon class="st4" points="2.1,35.6 7.2,49.8 22.2,65.5 32.2,67.8 27.2,54.1 12,37.7 		"/>
		<polyline class="st4" points="26.9,22.7 41.8,38.8 27.2,54.1 		"/>
		<polyline class="st4" points="32.2,67.8 52.4,66.5 66.7,51.9 61.6,38.1 41.8,38.8 		"/>
		<polyline class="st4" points="66.7,51.9 71.6,34.4 66.4,20.5 61.6,38.1 		"/>
		<line class="st4" x1="66.4" y1="20.5" x2="51.3" y2="4.4"/>
	</g>
</g>
<text transform="matrix(1 0 0 1 41.8031 52.6067)" class="st1 st2 st3">I</text>
<g>
	<g>
		<polygon class="st5" points="21.9,3.3 31.5,5.4 51.3,4.4 41.9,2.3 		"/>
		<polygon class="st5" points="31.5,5.4 26.9,22.7 12,37.7 2.1,35.6 6.8,18.3 21.9,3.3 		"/>
		<polygon class="st5" points="2.1,35.6 7.2,49.8 22.2,65.5 32.2,67.8 27.2,54.1 12,37.7 		"/>
		<polyline class="st5" points="26.9,22.7 41.8,38.8 27.2,54.1 		"/>
		<polyline class="st5" points="32.2,67.8 52.4,66.5 66.7,51.9 61.6,38.1 41.8,38.8 		"/>
		<polyline class="st5" points="66.7,51.9 71.6,34.4 66.4,20.5 61.6,38.1 		"/>
		<line class="st5" x1="66.4" y1="20.5" x2="51.3" y2="4.4"/>
	</g>
</g>
<g>
	<polygon class="st6" points="21.9,3.3 31.5,5.4 51.3,4.4 41.9,2.3 	"/>
	<polygon class="st6" points="31.5,5.4 26.9,22.7 12,37.7 2.1,35.6 6.8,18.3 21.9,3.3 	"/>
	<polygon class="st6" points="2.1,35.6 7.2,49.8 22.2,65.5 32.2,67.8 27.2,54.1 12,37.7 	"/>
	<polyline class="st6" points="26.9,22.7 41.8,38.8 27.2,54.1 	"/>
	<polyline class="st6" points="32.2,67.8 52.4,66.5 66.7,51.9 61.6,38.1 41.8,38.8 	"/>
	<polyline class="st6" points="66.7,51.9 71.6,34.4 66.4,20.5 61.6,38.1 	"/>
	<line class="st6" x1="66.4" y1="20.5" x2="51.3" y2="4.4"/>
</g>
<text transform="matrix(1 0 0 1 41.8031 52.6067)" class="st7 st2 st3">I</text>
<text transform="matrix(1 0 0 1 75.0606 52.9483)" class="st8 st2 st3">Fermi</text>
</svg>
